{
  "accessors": [
    {
      "bufferView": 2,
      "componentType": 5126,
      "count": 2575,
      "max": [
        13.460274696350098,
        34.00042724609375,
        13.460274696350098
      ],
      "min": [
        -13.460274696350098,
        0.02346780151128769,
        -13.460274696350098
      ],
      "type": "VEC3"
    },
    {
      "bufferView": 2,
      "byteOffset": 30900,
      "componentType": 5126,
      "count": 2575,
      "max": [
        0.9998351335525513,
        1.0,
        0.9998351335525513
      ],
      "min": [
        -0.9998351335525513,
        -0.9999998807907104,
        -0.9998351335525513
      ],
      "type": "VEC3"
    },
    {
      "bufferView": 1,
      "componentType": 5126,
      "count": 2575,
      "max": [
        1.0,
        1.0
      ],
      "min": [
        0.0,
        0.0
      ],
      "type": "VEC2"
    },
    {
      "bufferView": 0,
      "componentType": 5125,
      "count": 14688,
      "type": "SCALAR"
    },
    {
      "bufferView": 2,
      "byteOffset": 61800,
      "componentType": 5126,
      "count": 2368,
      "max": [
        4.8275604248046875,
        32.12070846557617,
        15.058584213256836
      ],
      "min": [
        -4.8275604248046875,
        7.342113018035889,
        9.905952453613281
      ],
      "type": "VEC3"
    },
    {
      "bufferView": 2,
      "byteOffset": 90216,
      "componentType": 5126,
      "count": 2368,
      "max": [
        0.9998893141746521,
        0.9992559552192688,
        1.0
      ],
      "min": [
        -0.9998892545700073,
        -0.9968467950820923,
        -0.9999914765357971
      ],
      "type": "VEC3"
    },
    {
      "bufferView": 3,
      "componentType": 5126,
      "count": 2368,
      "max": [
        1.0,
        0.9999107122421265,
        0.9995098114013672,
        1.0
      ],
      "min": [
        -1.0,
        -0.999900221824646,
        -0.99997878074646,
        -1.0
      ],
      "type": "VEC4"
    },
    {
      "bufferView": 1,
      "byteOffset": 20600,
      "componentType": 5126,
      "count": 2368,
      "max": [
        0.9100940823554993,
        0.9359262585639954
      ],
      "min": [
        0.01465916633605957,
        0.011522829532623291
      ],
      "type": "VEC2"
    },
    {
      "bufferView": 0,
      "byteOffset": 58752,
      "componentType": 5125,
      "count": 12804,
      "type": "SCALAR"
    },
    {
      "bufferView": 2,
      "byteOffset": 118632,
      "componentType": 5126,
      "count": 2368,
      "max": [
        4.8275604248046875,
        32.12070846557617,
        -9.905952453613281
      ],
      "min": [
        -4.8275604248046875,
        7.342113018035889,
        -15.058584213256836
      ],
      "type": "VEC3"
    },
    {
      "bufferView": 2,
      "byteOffset": 147048,
      "componentType": 5126,
      "count": 2368,
      "max": [
        0.9998893141746521,
        0.9992558360099792,
        0.9999914765357971
      ],
      "min": [
        -0.9998892545700073,
        -0.9968467950820923,
        -0.9999999403953552
      ],
      "type": "VEC3"
    },
    {
      "bufferView": 3,
      "byteOffset": 37888,
      "componentType": 5126,
      "count": 2368,
      "max": [
        1.0,
        0.9999107718467712,
        0.9999788403511047,
        1.0
      ],
      "min": [
        -1.0,
        -0.9999003410339355,
        -0.9995098114013672,
        -1.0
      ],
      "type": "VEC4"
    },
    {
      "bufferView": 1,
      "byteOffset": 39544,
      "componentType": 5126,
      "count": 2368,
      "max": [
        0.9100940823554993,
        0.9359262585639954
      ],
      "min": [
        0.01465916633605957,
        0.011522829532623291
      ],
      "type": "VEC2"
    },
    {
      "bufferView": 0,
      "byteOffset": 109968,
      "componentType": 5125,
      "count": 12804,
      "type": "SCALAR"
    }
  ],
  "asset": {
    "extras": {
      "author": "Lukianon (https://sketchfab.com/lukianon)",
      "license": "CC-BY-4.0 (http://creativecommons.org/licenses/by/4.0/)",
      "source": "https://sketchfab.com/3d-models/impugnatura-metallica-vasellame-73f53e0f51634f9f85f92c82300c6afd",
      "title": "\"Impugnatura Metallica\" Vasellame"
    },
    "generator": "Sketchfab-15.37.0",
    "version": "2.0"
  },
  "bufferViews": [
    {
      "buffer": 0,
      "byteLength": 161184,
      "name": "floatBufferViews",
      "target": 34963
    },
    {
      "buffer": 0,
      "byteLength": 58488,
      "byteOffset": 161184,
      "byteStride": 8,
      "name": "floatBufferViews",
      "target": 34962
    },
    {
      "buffer": 0,
      "byteLength": 175464,
      "byteOffset": 219672,
      "byteStride": 12,
      "name": "floatBufferViews",
      "target": 34962
    },
    {
      "buffer": 0,
      "byteLength": 75776,
      "byteOffset": 395136,
      "byteStride": 16,
      "name": "floatBufferViews",
      "target": 34962
    }
  ],
  "buffers": [
    {
      "byteLength": 470912,
      "uri": "scene.bin"
    }
  ],
  "extensionsUsed": [
    "KHR_materials_specular"
  ],
  "images": [
    {
      "uri": "textures/lambert3_baseColor.jpeg"
    },
    {
      "uri": "textures/lambert3_normal.jpeg"
    }
  ],
  "materials": [
    {
      "alphaMode": "BLEND",
      "doubleSided": true,
      "extensions": {
        "KHR_materials_specular": {
          "specularColorFactor": [
            1.0,
            1.0,
            1.0
          ],
          "specularFactor": 1.0
        }
      },
      "name": "lambert2",
      "pbrMetallicRoughness": {
        "baseColorFactor": [
          0.4107,
          0.274,
          0.1852,
          0.2780208588
        ],
        "metallicFactor": 0.0,
        "roughnessFactor": 0.6
      }
    },
    {
      "doubleSided": true,
      "name": "lambert3",
      "normalTexture": {
        "index": 1
      },
      "pbrMetallicRoughness": {
        "baseColorTexture": {
          "index": 0
        },
        "metallicFactor": 0.0,
        "roughnessFactor": 0.6
      }
    }
  ],
  "meshes": [
    {
      "name": "nurbsToPoly1_lambert2_0",
      "primitives": [
        {
          "attributes": {
            "NORMAL": 1,
            "POSITION": 0,
            "TEXCOORD_0": 2
          },
          "indices": 3,
          "material": 0,
          "mode": 4
        }
      ]
    },
    {
      "name": "pCube1_lambert3_0",
      "primitives": [
        {
          "attributes": {
            "NORMAL": 5,
            "POSITION": 4,
            "TANGENT": 6,
            "TEXCOORD_0": 7
          },
          "indices": 8,
          "material": 1,
          "mode": 4
        }
      ]
    },
    {
      "name": "pCube2_lambert3_0",
      "primitives": [
        {
          "attributes": {
            "NORMAL": 10,
            "POSITION": 9,
            "TANGENT": 11,
            "TEXCOORD_0": 12
          },
          "indices": 13,
          "material": 1,
          "mode": 4
        }
      ]
    }
  ],
  "nodes": [
    {
      "children": [
        1
      ],
      "matrix": [
        0.014924824237823486,
        0.0,
        0.0,
        0.0,
        0.0,
        3.3139767014630475e-18,
        -0.014924824237823486,
        0.0,
        0.0,
        0.014924824237823486,
        3.3139767014630475e-18,
        0.0,
        0.0,
        0.0,
        0.0,
        1.0
      ],
      "name": "Sketchfab_model"
    },
    {
      "children": [
        2
      ],
      "matrix": [
        1.0,
        0.0,
        0.0,
        0.0,
        0.0,
        0.0,
        1.0,
        0.0,
        0.0,
        -1.0,
        0.0,
        0.0,
        0.0,
        0.0,
        0.0,
        1.0
      ],
      "name": "92c321e4286a4861b53d1192a93e0c13.fbx"
    },
    {
      "children": [
        3,
        5,
        7
      ],
      "name": "RootNode"
    },
    {
      "children": [
        4
      ],
      "name": "nurbsToPoly1"
    },
    {
      "mesh": 0,
      "name": "nurbsToPoly1_lambert2_0"
    },
    {
      "children": [
        6
      ],
      "name": "pCube1"
    },
    {
      "mesh": 1,
      "name": "pCube1_lambert3_0"
    },
    {
      "children": [
        8
      ],
      "name": "pCube2"
    },
    {
      "mesh": 2,
      "name": "pCube2_lambert3_0"
    }
  ],
  "samplers": [
    {
      "magFilter": 9729,
      "minFilter": 9987,
      "wrapS": 10497,
      "wrapT": 10497
    }
  ],
  "scene": 0,
  "scenes": [
    {
      "name": "Sketchfab_Scene",
      "nodes": [
        0
      ]
    }
  ],
  "textures": [
    {
      "sampler": 0,
      "source": 0
    },
    {
      "sampler": 0,
      "source": 1
    }
  ]
}
